<svg width="63" height="63" viewBox="0 0 63 63" fill="none" xmlns="http://www.w3.org/2000/svg">
<rect width="63" height="63" rx="31.5" fill="#13F187"/>
<g clip-path="url(#clip0_60_937)">
<path d="M28.3164 33.2235C28.2169 33.2235 26.0285 33.2235 25.0337 33.2235C24.5032 33.2235 24.3374 33.0245 24.3374 32.5272C24.3374 31.2009 24.3374 29.8414 24.3374 28.5151C24.3374 27.9845 24.5363 27.8188 25.0337 27.8188H28.3164C28.3164 27.7193 28.3164 25.7961 28.3164 24.9009C28.3164 23.5745 28.5485 22.3145 29.2116 21.154C29.9079 19.9603 30.9027 19.1645 32.1627 18.7003C32.9916 18.4019 33.8206 18.2693 34.7158 18.2693H37.9653C38.4295 18.2693 38.6285 18.4682 38.6285 18.9324V22.7124C38.6285 23.1767 38.4295 23.3756 37.9653 23.3756C37.07 23.3756 36.1748 23.3756 35.2795 23.4088C34.3842 23.4088 33.92 23.8398 33.92 24.7682C33.8869 25.763 33.92 26.7245 33.92 27.7524H37.7664C38.2969 27.7524 38.4958 27.9514 38.4958 28.4819V32.494C38.4958 33.0245 38.33 33.1903 37.7664 33.1903C36.5727 33.1903 34.0195 33.1903 33.92 33.1903V43.9998C33.92 44.5634 33.7542 44.7624 33.1574 44.7624C31.7648 44.7624 30.4053 44.7624 29.0127 44.7624C28.5153 44.7624 28.3164 44.5634 28.3164 44.0661C28.3164 40.5845 28.3164 33.323 28.3164 33.2235Z" fill="black"/>
</g>
<defs>
<clipPath id="clip0_60_937">
<rect width="14.9211" height="26.5263" fill="white" transform="translate(24.0396 18.2368)"/>
</clipPath>
</defs>
</svg>
