<svg width="24" height="25" viewBox="0 0 24 25" fill="none" xmlns="http://www.w3.org/2000/svg">
<g clip-path="url(#clip0_60_944)">
<path d="M23.2642 24.1058V15.6049C23.2642 11.427 22.3648 8.2356 17.4906 8.2356C15.1405 8.2356 13.5738 9.51217 12.9355 10.7307H12.8775V8.61277H8.2644V24.1058H13.0806V16.4173C13.0806 14.3864 13.4578 12.4425 15.9529 12.4425C18.419 12.4425 18.448 14.7345 18.448 16.5334V24.0768H23.2642V24.1058Z" fill="black"/>
<path d="M0.428467 8.61304H5.24465V24.1061H0.428467V8.61304Z" fill="black"/>
<path d="M2.838 0.894775C1.3003 0.894775 0.0527344 2.14234 0.0527344 3.68004C0.0527344 5.21774 1.3003 6.49432 2.838 6.49432C4.37569 6.49432 5.62326 5.21774 5.62326 3.68004C5.62326 2.14234 4.37569 0.894775 2.838 0.894775Z" fill="black"/>
</g>
<defs>
<clipPath id="clip0_60_944">
<rect width="23.2105" height="23.2105" fill="white" transform="translate(0.0527344 0.894775)"/>
</clipPath>
</defs>
</svg>
