<svg width="64" height="63" viewBox="0 0 64 63" fill="none" xmlns="http://www.w3.org/2000/svg">
<rect x="0.736816" width="63" height="63" rx="31.5" fill="#13F187"/>
<g clip-path="url(#clip0_60_948)">
<path d="M45.8891 24.8087C45.7417 23.5789 44.5828 22.3997 43.3703 22.2418C35.9762 21.3231 28.4994 21.3231 21.1079 22.2418C19.8943 22.3994 18.7354 23.5789 18.588 24.8087C18.066 29.3156 18.066 33.6855 18.588 38.1914C18.7354 39.4212 19.8943 40.6014 21.1079 40.7583C28.4994 41.6769 35.9765 41.6769 43.3703 40.7583C44.5828 40.6016 45.7417 39.4212 45.8891 38.1914C46.4112 33.6859 46.4112 29.3156 45.8891 24.8087ZM29.8981 36.1816V26.8199L36.9192 31.5009L29.8981 36.1816Z" fill="black"/>
</g>
<defs>
<clipPath id="clip0_60_948">
<rect width="29.8421" height="19.8947" fill="white" transform="translate(17.3157 21.5527)"/>
</clipPath>
</defs>
</svg>
