<svg width="27" height="25" viewBox="0 0 27 25" fill="none" xmlns="http://www.w3.org/2000/svg">
<path d="M10.4649 13.784C6.99001 9.19378 3.52188 4.61223 0.0323859 0.00273455C0.123717 0.00273455 0.177993 0.00273455 0.232423 0.00273455C2.79508 0.00273455 5.35758 0.00349415 7.92024 4.9726e-07C8.03601 -0.000151401 8.10567 0.0344813 8.17439 0.125316C9.98518 2.52211 11.7989 4.91679 13.6121 7.31176C14.0202 7.85069 14.4284 8.38948 14.837 8.92811C14.8608 8.95955 14.8875 8.98886 14.9201 9.02775C15.0967 8.84076 15.2679 8.66016 15.4381 8.47864C15.8522 8.03677 16.2657 7.59429 16.6793 7.15196C17.1067 6.69475 17.5334 6.23693 17.9614 5.78032C18.3757 5.33861 18.7917 4.89856 19.2058 4.45684C19.6861 3.94464 20.1649 3.43107 20.6449 2.91842C20.9858 2.55432 21.3278 2.19128 21.6687 1.82733C22.0861 1.38166 22.5032 0.935692 22.9204 0.489871C23.056 0.344961 23.1933 0.201569 23.3255 0.0537725C23.3695 0.00470946 23.4202 0.00227902 23.4774 0.00243092C23.7542 0.00303851 24.031 0.00273455 24.3077 0.00273455C24.7229 0.00273455 25.138 0.00273455 25.5532 0.00273455C25.6024 0.00273455 25.6516 0.00273455 25.7006 0.00273455C25.7058 0.0135193 25.7112 0.0241521 25.7164 0.0349368C22.4723 3.4973 19.2284 6.95981 15.9746 10.4327C19.6438 15.2794 23.3105 20.123 27 24.9965C26.9177 24.9965 26.8739 24.9965 26.8299 24.9965C24.2519 24.9965 21.674 24.9959 19.096 24.9988C18.9924 24.9988 18.9278 24.967 18.8665 24.8859C16.6659 21.9746 14.4633 19.0647 12.2611 16.1548C12.0401 15.8629 11.8195 15.5709 11.5982 15.2793C11.5772 15.2515 11.5541 15.2253 11.5234 15.1883C11.4068 15.3101 11.294 15.426 11.1836 15.5439C10.7072 16.0529 10.2323 16.5633 9.75578 17.0721C9.34187 17.5141 8.92626 17.9545 8.51189 18.3962C8.04186 18.8972 7.57229 19.3987 7.10271 19.9002C6.69234 20.3385 6.28212 20.7771 5.87174 21.2154C5.38141 21.7393 4.89154 22.2634 4.40075 22.7868C3.983 23.2323 3.56386 23.6763 3.1461 24.1219C2.91286 24.3705 2.67853 24.6184 2.45051 24.8718C2.36979 24.9614 2.28522 25.0012 2.15976 25C1.49861 24.9936 0.837453 24.9969 0.176302 24.9969H0.013935C0.00624717 24.9848 0.00255707 24.9808 0.00101951 24.9761C-0.000364295 24.9719 -0.00021037 24.9669 0.000712167 24.9623C0.0016347 24.9574 0.00286485 24.9518 0.00609373 24.9483C3.48821 21.2311 6.97064 17.5141 10.4649 13.7843V13.784ZM3.52465 1.72678C3.57139 1.79361 3.59845 1.83493 3.62828 1.87427C4.49301 3.017 5.35804 4.15942 6.22277 5.302C7.9679 7.60751 9.71272 9.91316 11.4579 12.2185C13.1018 14.3904 14.7464 16.5617 16.3905 18.7334C17.5071 20.2082 18.6238 21.6827 19.7386 23.1588C19.7948 23.2332 19.8499 23.272 19.9515 23.2715C21.089 23.2673 22.2266 23.2689 23.3641 23.2685C23.4023 23.2685 23.4405 23.2639 23.4997 23.2601C23.4553 23.1977 23.425 23.1526 23.3923 23.1091C21.9231 21.1685 20.4535 19.2282 18.9842 17.2875C16.9934 14.658 15.0029 12.0282 13.0123 9.39853C11.1107 6.88645 9.2084 4.37466 7.30967 1.86045C7.23402 1.76035 7.1576 1.72298 7.03106 1.72359C5.9294 1.72875 4.82774 1.72662 3.72607 1.72662C3.6701 1.72662 3.61414 1.72662 3.52465 1.72662V1.72678Z" fill="black"/>
</svg>
